<?xml version="1.0" standalone="no"?><!DOCTYPE svg PUBLIC "-//W3C//DTD SVG 1.1//EN" "http://www.w3.org/Graphics/SVG/1.1/DTD/svg11.dtd"><svg t="1638154473143" class="icon" viewBox="0 0 1024 1024" version="1.1" xmlns="http://www.w3.org/2000/svg" p-id="2374" xmlns:xlink="http://www.w3.org/1999/xlink" width="200" height="200"><defs><style type="text/css"></style></defs><path d="M724.304 884.24c-37.088-12-74.224-23.984-111.312-35.984-15.072-4.88-30.16-9.712-45.216-14.624 24.096 7.776-6.496-14.624-13.424-25.008-7.168-10.768-12.064-22.384-15.856-34.448 4.864-9.952 6.096-22.112 3.712-33.76 0-0.832 0.08-1.616 0.032-2.432-1.296-60.88 1.344-149.632 51.568-191.248 30.432-25.264 25.472-76.912-0.544-102.592-16-15.792-35.296-21.696-54.464-20.08-53.952-41.696-109.344-81.44-165.936-119.568l58.96-163.168-8 0-6.384 0c2.24-3.6 3.584-7.824 3.584-12.368 0-13.024-10.544-23.568-23.568-23.568s-23.584 10.544-23.584 23.568c0 4.56 1.36 8.768 3.6 12.368l-51.04 0L321.92 141.328l-2.8 0c0.352-1.28 0.608-2.624 0.608-4.016 0-8.336-6.768-15.104-15.12-15.104-8.336 0-15.104 6.768-15.104 15.104 0 1.392 0.272 2.736 0.608 4.016l-26.928 0-3.152 0L250.08 141.328l56.624 166.832c-16.688 20.784-19.024 55.328 9.68 74.576l-21.984 46.832 60.784-20.32c34.272 23.632 68.032 47.952 101.264 73.024-0.176 0.24-0.368 0.48-0.56 0.72l4.88 2.528c6.672 5.056 13.376 10.096 20 15.216l-59.536 64.352 12.608-43.84c-24.32 52.4-33.968 114.864-36.24 171.824-22.672-0.528-45.344-0.736-68.064-0.768-19.536 0-43.52 14.592-46.64 35.488-13.552 91.072 11.872 177.344 62.912 253.216 34.592 51.424 118.384 3.088 83.504-48.8-28.384-42.224-52.064-91.504-54.8-142.928 15.888 0.224 31.728 0.624 47.584 1.216 7.296 5.984 15.728 10.336 24.704 13.168 18.752 56.992 54.752 110.128 113.248 129.008 46.192 14.928 92.368 29.84 138.576 44.768C758.112 996.688 783.408 903.296 724.304 884.24zM431.808 592.464c5.344 0 9.68 8.672 9.68 19.344 0 10.704-4.336 19.36-9.68 19.36-5.328 0-9.664-8.656-9.664-19.36C422.144 601.136 426.464 592.464 431.808 592.464zM426.976 635.984c5.344 0 9.664 8.672 9.664 19.344 0 10.704-4.32 19.36-9.664 19.36-5.344 0-9.664-8.656-9.664-19.36C417.312 644.656 421.632 635.984 426.976 635.984z" p-id="2375" fill="#1164FB"></path><path d="M555.072 305.184c20.576 12.112 88.928 52.528 100.016 58.992 11.104 6.448-22.88 28.256-23.92 51.696-1.424 32.176 16.848 9.936 16.848 9.936l10.432-17.68c23.024-39.056 41.872-70.624 4.112-92.896l-23.36-13.792c0 0-27.664-10.416-54.384-83.936-18.848 22.112-1.472 50.976-1.472 50.976s-21.2-31.136-30.288-28.656C553.056 239.824 534.56 293.04 555.072 305.184z" p-id="2376" fill="#1164FB"></path><path d="M268.208 113.824m-18.128 0a1.133 1.133 0 1 0 36.256 0 1.133 1.133 0 1 0-36.256 0Z" p-id="2377" fill="#1164FB"></path><path d="M342.96 113.824m-23.488 0a1.468 1.468 0 1 0 46.976 0 1.468 1.468 0 1 0-46.976 0Z" p-id="2378" fill="#1164FB"></path><path d="M382.336 80.592m-15.104 0a0.944 0.944 0 1 0 30.208 0 0.944 0.944 0 1 0-30.208 0Z" p-id="2379" fill="#1164FB"></path><path d="M356.032 55.808m-15.104 0a0.944 0.944 0 1 0 30.208 0 0.944 0.944 0 1 0-30.208 0Z" p-id="2380" fill="#1164FB"></path><path d="M304.608 65.488m-24.784 0a1.549 1.549 0 1 0 49.568 0 1.549 1.549 0 1 0-49.568 0Z" p-id="2381" fill="#1164FB"></path></svg>